<svg width="23" height="23" viewBox="0 0 23 23" fill="none" xmlns="http://www.w3.org/2000/svg">
<path d="M20.2208 3H2V21.2208H20.2208V3Z" fill="white"/>
<path d="M21 2H2V21H21V2Z" fill="#2D2929"/>
<path d="M19.399 0H2.62149C1.17443 0 0 1.17443 0 2.62149V19.399C0 20.8461 1.17443 22.0205 2.62149 22.0205H19.399C20.8461 22.0205 22.0205 20.8461 22.0205 19.399V2.62149C22.0205 1.17443 20.8461 0 19.399 0ZM17.3018 7.8645H16.2532C15.1312 7.8645 14.6803 8.1266 14.6803 8.9131V10.486H17.3018L16.7775 13.1074H14.6803V20.9719H12.0588V13.1074H9.9617V10.486H12.0588V8.9131C12.0588 6.81587 13.1074 5.24298 15.2046 5.24298C16.7251 5.24298 17.3018 5.76727 17.3018 5.76727V7.8645Z" fill="#2D2929"/>
<path d="M11.5 4H10.5C6.35786 4 3 7.35786 3 11.5C3 15.6421 6.35786 19 10.5 19H11.5C15.6421 19 19 15.6421 19 11.5C19 7.35786 15.6421 4 11.5 4Z" fill="white"/>
<path d="M10.9023 1C5.37962 1 0.902344 5.50029 0.902344 11.0514C0.902344 16.0908 4.59552 20.2516 9.40781 20.9785V13.7155H6.93371V11.0733H9.40781V9.3152C9.40781 6.40445 10.8187 5.12656 13.2255 5.12656C14.3782 5.12656 14.9878 5.21245 15.2764 5.25174V7.5581H13.6346C12.6128 7.5581 12.256 8.5317 12.256 9.6291V11.0733H15.2505L14.8442 13.7155H12.256V21C17.1369 20.3343 20.9023 16.1397 20.9023 11.0514C20.9023 5.50029 16.4251 1 10.9023 1Z" fill="#2D2929"/>
</svg>
