<svg width="23" height="23" viewBox="0 0 23 23" fill="none" xmlns="http://www.w3.org/2000/svg">
<path d="M19.399 0.584717H2.62149C1.17443 0.584717 0 1.75914 0 3.2062V19.9837C0 21.4308 1.17443 22.6052 2.62149 22.6052H19.399C20.8461 22.6052 22.0205 21.4308 22.0205 19.9837V3.2062C22.0205 1.75914 20.8461 0.584717 19.399 0.584717ZM17.3018 8.44918H16.2532C15.1312 8.44918 14.6803 8.71133 14.6803 9.49778V11.0707H17.3018L16.7775 13.6922H14.6803V21.5566H12.0588V13.6922H9.96165V11.0707H12.0588V9.49778C12.0588 7.40059 13.1074 5.82769 15.2046 5.82769C16.7251 5.82769 17.3018 6.35199 17.3018 6.35199V8.44918Z" fill="url(#paint0_linear_537_16)"/>
<defs>
<linearGradient id="paint0_linear_537_16" x1="11.0102" y1="0.584717" x2="21.9028" y2="25.4875" gradientUnits="userSpaceOnUse">
<stop stop-color="#F0CF99"/>
<stop offset="1" stop-color="white"/>
</linearGradient>
</defs>
</svg>
