<svg width="23" height="23" viewBox="0 0 23 23" fill="none" xmlns="http://www.w3.org/2000/svg">
<rect width="23" height="23" rx="3" fill="url(#paint0_linear_553_13)"/>
<path d="M8.49922 6C6.56986 6 5 7.57078 5 9.50062V14.5003C5 16.4299 6.57078 18 8.50062 18H13.5003C15.4299 18 17 16.4292 17 14.4994V9.49922C17 7.56986 15.4292 6 13.4994 6H8.49922ZM14.6 7.92C14.865 7.92 15.08 8.13504 15.08 8.4C15.08 8.66496 14.865 8.88 14.6 8.88C14.335 8.88 14.12 8.66496 14.12 8.4C14.12 8.13504 14.335 7.92 14.6 7.92ZM11 8.88C12.7208 8.88 14.12 10.2792 14.12 12C14.12 13.7208 12.7206 15.12 11 15.12C9.2792 15.12 7.88 13.7206 7.88 12C7.88 10.2794 9.2792 8.88 11 8.88ZM11 9.84C9.80696 9.84 8.84 10.807 8.84 12C8.84 13.193 9.80696 14.16 11 14.16C12.193 14.16 13.16 13.193 13.16 12C13.16 10.807 12.193 9.84 11 9.84Z" fill="#423E3E"/>
<defs>
<linearGradient id="paint0_linear_553_13" x1="11.5" y1="0" x2="11.5" y2="23" gradientUnits="userSpaceOnUse">
<stop stop-color="#F0CF99"/>
<stop offset="1" stop-color="#FDF7EF"/>
</linearGradient>
</defs>
</svg>
