<svg width="24" height="24" viewBox="0 0 24 24" fill="none" xmlns="http://www.w3.org/2000/svg">
<path d="M21.142 0H3.47337C1.94945 0 0.712646 1.2368 0.712646 2.76072V20.4294C0.712646 21.9533 1.94945 23.1901 3.47337 23.1901H21.142C22.6659 23.1901 23.9027 21.9533 23.9027 20.4294V2.76072C23.9027 1.2368 22.6659 0 21.142 0ZM7.89053 8.83432V19.3251H4.57766V8.83432H7.89053ZM4.57766 5.78096C4.57766 5.00795 5.24023 4.41716 6.23409 4.41716C7.22796 4.41716 7.85188 5.00795 7.89053 5.78096C7.89053 6.55396 7.27213 7.17788 6.23409 7.17788C5.24023 7.17788 4.57766 6.55396 4.57766 5.78096ZM20.0377 19.3251H16.7248C16.7248 19.3251 16.7248 14.2122 16.7248 13.8036C16.7248 12.6993 16.1727 11.595 14.7923 11.573H14.7482C13.412 11.573 12.8598 12.7104 12.8598 13.8036C12.8598 14.3061 12.8598 19.3251 12.8598 19.3251H9.54696V8.83432H12.8598V10.2478C12.8598 10.2478 13.9255 8.83432 16.0678 8.83432C18.2598 8.83432 20.0377 10.3417 20.0377 13.395V19.3251Z" fill="url(#paint0_linear_537_13)"/>
<defs>
<linearGradient id="paint0_linear_537_13" x1="12.3077" y1="0" x2="23.7788" y2="26.2255" gradientUnits="userSpaceOnUse">
<stop stop-color="#F0CF99"/>
<stop offset="1" stop-color="white"/>
</linearGradient>
</defs>
</svg>
