<svg width="23" height="23" viewBox="0 0 23 23" fill="none" xmlns="http://www.w3.org/2000/svg">
<rect x="2.26025" y="1.93286" width="19.1058" height="19.1058" fill="#423E3E"/>
<path d="M20.3014 0H3.52426C2.07723 0 0.902832 1.1744 0.902832 2.62143V19.3986C0.902832 20.8456 2.07723 22.02 3.52426 22.02H20.3014C21.7484 22.02 22.9228 20.8456 22.9228 19.3986V2.62143C22.9228 1.1744 21.7484 0 20.3014 0ZM7.71855 8.38857V18.35H4.57283V8.38857H7.71855ZM4.57283 5.48927C4.57283 4.75527 5.20198 4.19429 6.14569 4.19429C7.0894 4.19429 7.68185 4.75527 7.71855 5.48927C7.71855 6.22327 7.13135 6.81571 6.14569 6.81571C5.20198 6.81571 4.57283 6.22327 4.57283 5.48927ZM19.2528 18.35H16.1071C16.1071 18.35 16.1071 13.4951 16.1071 13.1071C16.1071 12.0586 15.5828 11.01 14.2721 10.989H14.2302C12.9614 10.989 12.4371 12.0691 12.4371 13.1071C12.4371 13.5842 12.4371 18.35 12.4371 18.35H9.2914V8.38857H12.4371V9.73074C12.4371 9.73074 13.449 8.38857 15.4832 8.38857C17.5646 8.38857 19.2528 9.81987 19.2528 12.7192V18.35Z" fill="url(#paint0_linear_570_16)"/>
<defs>
<linearGradient id="paint0_linear_570_16" x1="11.9128" y1="0" x2="11.9128" y2="22.02" gradientUnits="userSpaceOnUse">
<stop stop-color="#F2D4A5"/>
<stop offset="1" stop-color="#FCF5EB"/>
</linearGradient>
</defs>
</svg>
