<svg width="23" height="23" viewBox="0 0 23 23" fill="none" xmlns="http://www.w3.org/2000/svg">
<rect width="23" height="23" rx="3" fill="url(#paint0_linear_582_11)"/>
<path d="M11.997 6C10.4065 6 8.88118 6.63173 7.75643 7.75643C6.63168 8.88112 6 10.4064 6 11.997C6 13.5875 6.63173 15.1127 7.75643 16.2375C8.88112 17.3622 10.4064 17.9939 11.997 17.9939C13.5875 17.9939 15.1127 17.3622 16.2375 16.2375C17.3622 15.1128 17.9939 13.5875 17.9939 11.997C17.9919 10.4071 17.3595 8.88288 16.2353 7.7587C15.1112 6.63446 13.587 6.00204 11.997 6.00006L11.997 6ZM6.76545 12.3696H8.40327C8.43423 13.0754 8.57424 13.772 8.81821 14.4348H7.34947C7.01387 13.7943 6.81493 13.091 6.76545 12.3696ZM12.3696 8.81329V7.05866C13.0139 7.53651 13.562 8.13174 13.985 8.81329H12.3696ZM14.3578 9.55887C14.6388 10.2134 14.8013 10.9127 14.8374 11.6241H12.3522V9.55887H14.3578ZM11.624 7.05377V8.81329H10.0086C10.4282 8.12774 10.9769 7.53017 11.624 7.05366V7.05377ZM11.624 9.55887V11.6241H9.13879C9.17363 10.9132 9.33351 10.2141 9.61099 9.55887H11.624ZM8.39322 11.6241H6.7654C6.81566 10.9025 7.01536 10.1992 7.35186 9.55887H8.82071C8.57585 10.2216 8.43506 10.9182 8.40322 11.6241H8.39322ZM9.13879 12.3696H11.624V14.4348H9.6234C9.34503 13.7797 9.18438 13.0806 9.14876 12.3696H9.13879ZM11.624 15.1804V16.94C10.9769 16.4635 10.4282 15.866 10.0086 15.1804H11.624ZM12.3696 16.9399V15.1804H13.985C13.5654 15.866 13.0168 16.4635 12.3696 16.94V16.9399ZM12.3696 14.4348V12.3696H14.8549C14.82 13.0805 14.6601 13.7796 14.3827 14.4348H12.3696ZM15.6004 12.3696H17.2382C17.188 13.0912 16.9882 13.7945 16.6517 14.4348H15.1755C15.4195 13.772 15.5595 13.0754 15.5904 12.3696H15.6004ZM15.6004 11.6241C15.5694 10.9183 15.4293 10.2217 15.1854 9.55887H16.6442C16.9807 10.1992 17.1804 10.9025 17.2307 11.6241H15.5904H15.6004ZM16.172 8.81329H14.8549C14.4861 8.11166 13.9983 7.47936 13.4134 6.94436C14.5076 7.25381 15.472 7.90949 16.162 8.81329H16.172ZM10.5903 6.94436C10.0054 7.47936 9.51766 8.11166 9.14887 8.81329H7.8317C8.52435 7.90773 9.49249 7.2518 10.5903 6.94436ZM7.8317 15.1803H9.14887C9.51766 15.882 10.0054 16.5143 10.5903 17.0492C9.49249 16.7418 8.52435 16.0859 7.8317 15.1803ZM13.406 17.0492C13.991 16.5143 14.4786 15.882 14.8475 15.1803H16.1646C15.4713 16.0863 14.5022 16.7422 13.4035 17.0492H13.406Z" fill="#423E3E"/>
<defs>
<linearGradient id="paint0_linear_582_11" x1="11.5" y1="0" x2="11.5" y2="23" gradientUnits="userSpaceOnUse">
<stop stop-color="#F0CF99"/>
<stop offset="1" stop-color="#FDF7EF"/>
</linearGradient>
</defs>
</svg>
